<?xml version="1.0" encoding="UTF-8" standalone="no"?>
<!-- Created with Inkscape (http://www.inkscape.org/) -->

<svg
   version="1.1"
   id="svg5202"
   xml:space="preserve"
   width="682.66669"
   height="682.66669"
   viewBox="0 0 682.66669 682.66669"
   xmlns="http://www.w3.org/2000/svg"
   xmlns:svg="http://www.w3.org/2000/svg"><defs
     id="defs5206"><clipPath
       clipPathUnits="userSpaceOnUse"
       id="clipPath5216"><path
         d="M 0,512 H 512 V 0 H 0 Z"
         id="path5214" /></clipPath></defs><g
     id="g5208"
     transform="matrix(1.3333333,0,0,-1.3333333,0,682.66667)"><g
       id="g5210"><g
         id="g5212"
         clip-path="url(#clipPath5216)"><g
           id="g5218"
           transform="translate(284,7.5)"><path
             d="m 0,0 h -214 c -22.092,0 -40,17.908 -40,40 v 417 c 0,22.092 17.908,40 40,40 H 0 c 22.092,0 40,-17.908 40,-40 V 40 C 40,17.908 22.092,0 0,0"
             style="fill:#7b727b;fill-opacity:1;fill-rule:nonzero;stroke:none"
             id="path5220" /></g><g
           id="g5222"
           transform="translate(284,504.5)"><path
             d="m 0,0 h -30 c 22.092,0 40,-17.908 40,-40 v -417 c 0,-22.092 -17.908,-40 -40,-40 H 0 c 22.092,0 40,17.908 40,40 V -40 C 40,-17.908 22.092,0 0,0"
             style="fill:#686169;fill-opacity:1;fill-rule:nonzero;stroke:none"
             id="path5224" /></g><g
           id="g5226"
           transform="translate(298,464.5)"><path
             d="m 0,0 v -417 c 0,-7.732 -6.268,-14 -14,-14 h -214 c -7.732,0 -14,6.268 -14,14 V 0 c 0,7.732 6.268,14 14,14 h 40.104 c 2.332,0 4.406,-1.479 5.164,-3.684 l 5.284,-15.353 c 0.759,-2.204 2.833,-3.684 5.164,-3.684 h 102.568 c 2.331,0 4.405,1.48 5.164,3.684 l 5.284,15.353 C -58.51,12.521 -56.436,14 -54.104,14 H -14 C -6.268,14 0,7.732 0,0"
             style="fill:#d6faec;fill-opacity:1;fill-rule:nonzero;stroke:none"
             id="path5228" /></g><g
           id="g5230"
           transform="translate(284,478.5)"><path
             d="m 0,0 h -30 c 7.732,0 14,-6.268 14,-14 v -417 c 0,-7.732 -6.268,-14 -14,-14 H 0 c 7.732,0 14,6.268 14,14 V -14 C 14,-6.268 7.732,0 0,0"
             style="fill:#ccfae8;fill-opacity:1;fill-rule:nonzero;stroke:none"
             id="path5232" /></g><g
           id="g5234"
           transform="translate(216,98)"><path
             d="m 0,0 h -78 c -11.598,0 -21,9.402 -21,21 0,11.598 9.402,21 21,21 H 0 C 11.598,42 21,32.598 21,21 21,9.402 11.598,0 0,0"
             style="fill:#2fd9e7;fill-opacity:1;fill-rule:nonzero;stroke:none"
             id="path5236" /></g><g
           id="g5238"
           transform="translate(462.3691,185)"><path
             d="m 0,0 h -344.738 c -10.842,0 -19.631,8.789 -19.631,19.631 v 200.738 c 0,10.842 8.789,19.631 19.631,19.631 H 0 c 10.842,0 19.631,-8.789 19.631,-19.631 V 19.631 C 19.631,8.789 10.842,0 0,0"
             style="fill:#2fd9e7;fill-opacity:1;fill-rule:nonzero;stroke:none"
             id="path5240" /></g><g
           id="g5242"
           transform="translate(462.3691,425)"><path
             d="m 0,0 h -30 c 10.842,0 19.631,-8.789 19.631,-19.631 V -220.369 C -10.369,-231.211 -19.158,-240 -30,-240 H 0 c 10.842,0 19.631,8.789 19.631,19.631 V -19.631 C 19.631,-8.789 10.842,0 0,0"
             style="fill:#00d0e4;fill-opacity:1;fill-rule:nonzero;stroke:none"
             id="path5244" /></g><g
           id="g5246"
           transform="translate(211,334)"><path
             d="m 0,0 h -62 c -3.313,0 -6,2.687 -6,6 v 40 c 0,3.313 2.687,6 6,6 H 0 c 3.313,0 6,-2.687 6,-6 V 6 C 6,2.687 3.313,0 0,0"
             style="fill:#ffe589;fill-opacity:1;fill-rule:nonzero;stroke:none"
             id="path5248" /></g><g
           id="g5250"
           transform="translate(186,222.1738)"><path
             d="M 0,0 H -88 V 52 H 0 C 14.359,52 26,40.359 26,26 26,11.641 14.359,0 0,0"
             style="fill:#ff6167;fill-opacity:1;fill-rule:nonzero;stroke:none"
             id="path5252" /></g><g
           id="g5254"
           transform="translate(229.5,119)"><path
             d="m 0,0 c 0,-7.444 -6.056,-13.5 -13.5,-13.5 h -78 c -7.444,0 -13.5,6.056 -13.5,13.5 0,7.444 6.056,13.5 13.5,13.5 h 78 C -6.056,13.5 0,7.444 0,0 M -91.5,28.5 C -107.215,28.5 -120,15.715 -120,0 c 0,-15.715 12.785,-28.5 28.5,-28.5 h 78 C 2.215,-28.5 15,-15.715 15,0 15,15.715 2.215,28.5 -13.5,28.5 Z"
             style="fill:#000000;fill-opacity:1;fill-rule:nonzero;stroke:none"
             id="path5256" /></g><g
           id="g5258"
           transform="translate(186,266.6738)"><path
             d="M 0,0 C 10.201,0 18.5,-8.299 18.5,-18.5 18.5,-28.701 10.201,-37 0,-37 H -80.5 V 0 Z m 276.369,165.826 h -38.178 c -4.142,0 -7.5,-3.357 -7.5,-7.5 0,-4.142 3.358,-7.5 7.5,-7.5 h 38.178 c 6.69,0 12.131,-5.441 12.131,-12.131 V -62.043 c 0,-6.689 -5.441,-12.131 -12.131,-12.131 H -68.369 c -6.69,0 -12.131,5.442 -12.131,12.131 V -52 H 0 c 18.472,0 33.5,15.028 33.5,33.5 C 33.5,-0.028 18.472,15 0,15 h -80.5 v 123.695 c 0,6.69 5.441,12.131 12.131,12.131 h 271.305 c 4.142,0 7.5,3.358 7.5,7.5 0,4.143 -3.358,7.5 -7.5,7.5 H 145.5 v 32 c 0,26.192 -21.309,47.5 -47.5,47.5 h -214 c -26.191,0 -47.5,-21.308 -47.5,-47.5 v -43.039 c 0,-4.142 3.357,-7.5 7.5,-7.5 4.143,0 7.5,3.358 7.5,7.5 v 43.039 c 0,17.921 14.579,32.5 32.5,32.5 H 98 c 17.921,0 32.5,-14.579 32.5,-32.5 v -32 h -11 v 32 c 0,11.856 -9.645,21.5 -21.5,21.5 H 57.9 c -5.528,0 -10.455,-3.509 -12.262,-8.741 l -4.805,-13.979 h -99.666 l -4.809,13.99 c -1.803,5.221 -6.73,8.73 -12.258,8.73 H -116 c -11.855,0 -21.5,-9.644 -21.5,-21.5 v -417 c 0,-11.855 9.645,-21.5 21.5,-21.5 H 98 c 11.855,0 21.5,9.645 21.5,21.5 v 23.45 c 0,4.143 -3.357,7.5 -7.5,7.5 -4.143,0 -7.5,-3.357 -7.5,-7.5 v -23.45 c 0,-3.584 -2.916,-6.5 -6.5,-6.5 h -214 c -3.584,0 -6.5,2.916 -6.5,6.5 v 417 c 0,3.584 2.916,6.5 6.5,6.5 h 38.652 l 4.809,-13.988 c 1.803,-5.223 6.729,-8.732 12.259,-8.732 H 42.28 c 5.53,0 10.456,3.509 12.263,8.742 l 4.805,13.978 H 98 c 3.584,0 6.5,-2.916 6.5,-6.5 v -32 H -68.369 c -14.96,0 -27.131,-12.171 -27.131,-27.131 V -62.043 c 0,-14.96 12.171,-27.131 27.131,-27.131 H 104.5 v -71.573 c 0,-4.143 3.357,-7.5 7.5,-7.5 4.143,0 7.5,3.357 7.5,7.5 v 71.573 h 11 v -130 c 0,-17.921 -14.579,-32.5 -32.5,-32.5 h -214 c -17.921,0 -32.5,14.579 -32.5,32.5 v 338.5 c 0,4.143 -3.357,7.5 -7.5,7.5 -4.143,0 -7.5,-3.357 -7.5,-7.5 v -338.5 c 0,-26.191 21.309,-47.5 47.5,-47.5 H 98 c 26.191,0 47.5,21.309 47.5,47.5 v 130 h 130.869 c 14.96,0 27.131,12.171 27.131,27.131 v 200.738 c 0,14.96 -12.171,27.131 -27.131,27.131"
             style="fill:#000000;fill-opacity:1;fill-rule:nonzero;stroke:none"
             id="path5260" /></g><g
           id="g5262"
           transform="translate(372.7549,258.3223)"><path
             d="M 0,0 6.554,-17.366 H -6.614 Z m -25.575,-46.077 c 3.869,-1.476 8.204,0.468 9.679,4.339 l 3.569,9.372 h 24.541 l 3.529,-9.351 c 1.133,-3.003 3.987,-4.853 7.018,-4.853 0.88,0 1.775,0.156 2.647,0.485 3.875,1.462 5.831,5.789 4.368,9.665 L 8.256,20.607 C 8.23,20.677 8.203,20.745 8.175,20.814 6.81,24.13 3.612,26.271 0.027,26.271 H 0.016 c -3.59,-0.004 -6.787,-2.155 -8.145,-5.478 -0.023,-0.056 -0.045,-0.111 -0.066,-0.167 l -21.719,-57.024 c -1.475,-3.872 0.469,-8.205 4.339,-9.679"
             style="fill:#000000;fill-opacity:1;fill-rule:nonzero;stroke:none"
             id="path5264" /></g><g
           id="g5266"
           transform="translate(415.666,246.5742)"><path
             d="m 0,0 -0.067,-27.302 c -0.01,-4.142 3.339,-7.509 7.481,-7.518 h 0.019 c 4.133,0 7.49,3.345 7.5,7.481 L 15,-0.01 32.113,26.28 c 2.26,3.472 1.279,8.117 -2.193,10.377 -3.471,2.262 -8.118,1.28 -10.377,-2.193 L 7.495,15.957 -4.689,34.619 c -2.267,3.469 -6.912,4.443 -10.381,2.18 -3.468,-2.265 -4.445,-6.912 -2.18,-10.381 z"
             style="fill:#000000;fill-opacity:1;fill-rule:nonzero;stroke:none"
             id="path5268" /></g><g
           id="g5270"
           transform="translate(324.0264,269.5928)"><path
             d="m 0,0 c 4.955,0 9.142,-4.04 9.142,-8.822 0,-4.782 -4.187,-8.823 -9.142,-8.823 -1.993,0 -5.383,-0.013 -8.533,-0.03 -0.017,3.263 -0.031,6.803 -0.031,8.853 0,1.74 -0.009,5.403 -0.018,8.822 z m -23.604,-50.339 c 0,-4.142 3.357,-7.5 7.5,-7.5 4.142,0 7.5,3.358 7.5,7.5 v 17.664 c 3.167,0.016 6.597,0.03 8.604,0.03 13.312,0 24.142,10.687 24.142,23.823 C 24.142,4.313 13.312,15 0,15 h -16.104 c -1.994,0 -3.905,-0.793 -5.312,-2.205 -1.407,-1.412 -2.194,-3.325 -2.188,-5.318 0,-0.001 0.013,-4.228 0.024,-8.505 -0.011,-0.164 -0.024,-0.326 -0.024,-0.492 z"
             style="fill:#000000;fill-opacity:1;fill-rule:nonzero;stroke:none"
             id="path5272" /></g><path
           d="m 209.5,341.5 h -59 v 37 h 59 z m -60.5,52 c -7.444,0 -13.5,-6.056 -13.5,-13.5 v -40 c 0,-7.444 6.056,-13.5 13.5,-13.5 h 62 c 7.444,0 13.5,6.056 13.5,13.5 v 40 c 0,7.444 -6.056,13.5 -13.5,13.5 z"
           style="fill:#000000;fill-opacity:1;fill-rule:nonzero;stroke:none"
           id="path5274" /><g
           id="g5276"
           transform="translate(273.9043,367.9307)"><path
             d="m 0,0 v -12 c 0,-4.143 3.357,-7.5 7.5,-7.5 4.143,0 7.5,3.357 7.5,7.5 V 0 C 15,4.143 11.643,7.5 7.5,7.5 3.357,7.5 0,4.143 0,0"
             style="fill:#000000;fill-opacity:1;fill-rule:nonzero;stroke:none"
             id="path5278" /></g><g
           id="g5280"
           transform="translate(405.1064,348.4307)"><path
             d="m 0,0 c 4.143,0 7.5,3.357 7.5,7.5 v 12 C 7.5,23.643 4.143,27 0,27 -4.143,27 -7.5,23.643 -7.5,19.5 V 7.5 C -7.5,3.357 -4.143,0 0,0"
             style="fill:#000000;fill-opacity:1;fill-rule:nonzero;stroke:none"
             id="path5282" /></g><g
           id="g5284"
           transform="translate(439.3418,355.9307)"><path
             d="m 0,0 v 12 c 0,4.143 -3.357,7.5 -7.5,7.5 -4.143,0 -7.5,-3.357 -7.5,-7.5 V 0 c 0,-4.143 3.357,-7.5 7.5,-7.5 4.143,0 7.5,3.357 7.5,7.5"
             style="fill:#000000;fill-opacity:1;fill-rule:nonzero;stroke:none"
             id="path5286" /></g><g
           id="g5288"
           transform="translate(327.7227,355.9307)"><path
             d="m 0,0 v 12 c 0,4.143 -3.357,7.5 -7.5,7.5 -4.143,0 -7.5,-3.357 -7.5,-7.5 V 0 c 0,-4.143 3.357,-7.5 7.5,-7.5 4.143,0 7.5,3.357 7.5,7.5"
             style="fill:#000000;fill-opacity:1;fill-rule:nonzero;stroke:none"
             id="path5290" /></g><g
           id="g5292"
           transform="translate(348.5596,348.4307)"><path
             d="m 0,0 c 4.143,0 7.5,3.357 7.5,7.5 v 12 C 7.5,23.643 4.143,27 0,27 -4.143,27 -7.5,23.643 -7.5,19.5 V 7.5 C -7.5,3.357 -4.143,0 0,0"
             style="fill:#000000;fill-opacity:1;fill-rule:nonzero;stroke:none"
             id="path5294" /></g></g></g></g></svg>
