<svg id="Capa_1" enable-background="new 0 0 511.969 511.969" height="512" viewBox="0 0 511.969 511.969" width="512" xmlns="http://www.w3.org/2000/svg"><g><g><path d="m434.962 255.982c0 64.565-1.932 129.756-5.759 194.71-1.52 25.801-21.889 46.463-47.647 48.594-83.639 6.92-167.685 6.93-251.156.018-25.754-2.133-46.119-22.794-47.64-48.591-3.822-64.858-5.754-130.159-5.754-194.73s1.932-129.873 5.754-194.73c1.52-25.798 21.885-46.458 47.64-48.591 83.472-6.912 167.517-6.902 251.157.018 25.758 2.131 46.126 22.793 47.647 48.594 3.826 64.952 5.758 130.143 5.758 194.708z" fill="#617881"/><path d="m106.326 55.372c-3.3 66.82-4.97 134.09-4.97 200.61s1.67 133.79 4.97 200.61c.89 17.99 9.25 33.57 21.46 42.43-24.51-3.27-43.55-23.39-45.02-48.31-3.83-64.86-5.76-130.16-5.76-194.73s1.93-129.87 5.76-194.73c1.47-24.92 20.51-45.04 45.02-48.31-12.21 8.86-20.57 24.44-21.46 42.43z" fill="#404a4a"/><path d="m404.965 255.982c0 55.45-1.92 111.92-5.71 167.82-.63 9.36-9.31 17.02-20.17 17.8-40.86 2.94-82.34 4.43-123.3 4.43-40.88 0-82.24-1.49-122.91-4.42-10.86-.78-19.53-8.43-20.17-17.79-3.78-55.85-5.7-112.32-5.7-167.84s1.92-111.99 5.7-167.84c.64-9.36 9.31-17.01 20.17-17.79 7.1-.51 14.21-.98 21.35-1.4 33.74-2 67.81-3.02 101.56-3.02 33.85 0 68.05 1.02 101.96 3.03 7.13.42 14.25.89 21.34 1.4 10.86.78 19.54 8.44 20.17 17.8 3.79 55.9 5.71 112.37 5.71 167.82z" fill="#dd636e"/><path d="m308.866 235.191-66.416-38.345c-16.753-9.673-37.695 2.418-37.695 21.763v76.691c0 19.345 20.942 31.436 37.695 21.763l66.416-38.345c16.754-9.673 16.754-33.854 0-43.527z" fill="#fff"/><g><path d="m369.898 378.221v10.76c0 8.78-7.12 15.9-15.91 15.9h-196.007c-8.79 0-15.91-7.12-15.91-15.9v-10.76c0-8.78 7.12-15.9 15.91-15.9h196.007c8.79 0 15.91 7.12 15.91 15.9z" fill="#617881"/><path d="m238.391 362.321v42.56h-80.41c-8.79 0-15.91-7.12-15.91-15.9v-10.76c0-8.78 7.12-15.9 15.91-15.9z" fill="#dfeaef"/><path d="m227.381 362.32h22.889v42.565h-22.889z" fill="#f4dd45"/></g></g><g><path d="m213.564 323.553c5.11 2.951 10.716 4.427 16.323 4.427 5.603 0 11.208-1.474 16.318-4.422l66.411-38.34c10.221-5.903 16.322-16.472 16.319-28.271-.003-11.794-6.104-22.355-16.32-28.249l-52-30.03c-3.585-2.072-8.173-.843-10.245 2.744s-.843 8.174 2.744 10.245l52.002 30.031c5.52 3.185 8.817 8.89 8.818 15.261.001 6.375-3.296 12.087-8.82 15.278l-66.408 38.339c-5.524 3.188-12.119 3.187-17.641-.002-5.517-3.187-8.811-8.892-8.811-15.262v-76.69c0-9.927 7.548-16.297 15.005-17.459 4.092-.638 6.893-4.473 6.255-8.566-.638-4.092-4.468-6.892-8.566-6.255-16.047 2.501-27.695 16.077-27.695 32.281v76.69c.001 11.79 6.098 22.351 16.311 28.25z"/><path d="m301.921 45.639c4.142 0 7.5-3.358 7.5-7.5s-3.358-7.5-7.5-7.5h-91.873c-4.142 0-7.5 3.358-7.5 7.5s3.358 7.5 7.5 7.5z"/><path d="m323.034 45.062c6.202 2.616 12.458-4.053 9.669-10.075-1.38-2.981-4.651-4.749-7.904-4.267-3.238.479-5.824 3.095-6.311 6.32-.509 3.379 1.418 6.699 4.546 8.022z"/><path d="m436.691 60.831c-1.725-29.283-25.163-53.196-54.519-55.624-83.838-6.937-168.753-6.944-252.387-.02-29.35 2.427-52.784 26.34-54.509 55.623-3.831 64.876-5.773 130.542-5.773 195.172s1.942 130.296 5.773 195.171c1.725 29.284 25.159 53.197 54.51 55.624 9.217.761 17.822 1.396 26.307 1.94 4.122.273 7.7-2.871 7.964-7.004.266-4.133-2.871-7.699-7.004-7.965-8.393-.538-16.908-1.167-26.032-1.92-21.955-1.815-39.482-19.681-40.771-41.557-3.813-64.583-5.747-129.951-5.747-194.288s1.934-129.705 5.747-194.289c1.289-21.875 18.817-39.741 40.772-41.556 82.813-6.856 166.896-6.85 249.913.02 21.96 1.815 39.493 19.681 40.782 41.557 3.813 64.673 5.747 130.035 5.747 194.269s-1.934 129.595-5.747 194.269c-1.289 21.875-18.821 39.741-40.782 41.556-63.347 5.239-127.574 6.498-190.896 3.742-4.149-.182-7.64 3.028-7.819 7.167-.18 4.138 3.028 7.639 7.167 7.819 21.982.957 44.063 1.434 66.188 1.434 42.238 0 84.613-1.741 126.596-5.212 29.356-2.427 52.794-26.34 54.519-55.623 3.831-64.966 5.773-130.625 5.773-195.151s-1.941-130.188-5.772-195.154z"/><path d="m105.226 87.637c-3.795 56.013-5.719 112.652-5.719 168.345 0 55.696 1.924 112.335 5.72 168.345.885 13.071 12.54 23.719 27.111 24.769 40.85 2.942 82.384 4.435 123.449 4.435 41.14 0 82.804-1.498 123.834-4.451 14.574-1.048 26.231-11.697 27.117-24.77 3.798-56.074 5.725-112.708 5.725-168.328s-1.926-112.253-5.725-168.328c-.886-13.072-12.543-23.721-27.116-24.77-41.032-2.953-82.695-4.45-123.833-4.45-41.063 0-82.598 1.492-123.451 4.434-14.571 1.05-26.227 11.698-27.112 24.769zm150.563-14.203c40.78 0 82.082 1.484 122.756 4.411 7.041.507 12.851 5.261 13.228 10.822 3.776 55.739 5.69 112.031 5.69 167.314s-1.915 111.576-5.69 167.314c-.376 5.562-6.187 10.315-13.228 10.822-40.674 2.927-81.975 4.412-122.758 4.412-40.708 0-81.879-1.479-122.371-4.396-7.039-.507-12.847-5.26-13.224-10.821-3.772-55.674-5.686-111.973-5.686-167.332 0-55.356 1.913-111.654 5.685-167.332.376-5.561 6.186-10.314 13.224-10.821 40.496-2.914 81.668-4.393 122.374-4.393z"/><path d="m157.976 412.386h196.017c12.904 0 23.402-10.498 23.402-23.402v-10.761c0-12.904-10.498-23.402-23.402-23.402h-196.017c-12.904 0-23.402 10.498-23.402 23.402v10.761c0 12.904 10.498 23.402 23.402 23.402zm204.42-34.163v10.761c0 4.633-3.769 8.402-8.402 8.402h-96.224v-27.566h96.223c4.634 0 8.403 3.769 8.403 8.403zm-119.626-8.403v27.565h-7.889v-27.565zm-93.196 8.403c0-4.633 3.77-8.402 8.402-8.402h61.905v27.565h-61.905c-4.633 0-8.402-3.769-8.402-8.402z"/></g></g></svg>